<svg width="534" height="150" viewBox="0 0 534 150" fill="none" xmlns="http://www.w3.org/2000/svg">
<rect width="534" height="150" fill="#E1DDFB"/>
<mask id="mask0_1_369" style="mask-type:alpha" maskUnits="userSpaceOnUse" x="0" y="0" width="534" height="150">
<rect width="534" height="150" fill="#D7D4FC"/>
</mask>
<g mask="url(#mask0_1_369)">
<path d="M502.991 88.339L309.786 -54.5261L-62.5163 67.4877L44.9002 449.451L241.641 458.795L476.894 233.719L502.991 88.339Z" fill="#EDEBFD"/>
<path d="M501.34 130H500.35V123.79H498.08V122.92H503.61V123.79H501.34V130ZM509.193 128.33L510.813 130H509.503L508.623 129.07C508.357 129.403 508.053 129.663 507.713 129.85C507.38 130.037 506.967 130.13 506.473 130.13C506.167 130.13 505.873 130.087 505.593 130C505.313 129.913 505.067 129.787 504.853 129.62C504.647 129.447 504.48 129.237 504.353 128.99C504.233 128.737 504.173 128.447 504.173 128.12C504.173 127.853 504.217 127.617 504.303 127.41C504.397 127.197 504.517 127.007 504.663 126.84C504.81 126.673 504.98 126.527 505.173 126.4C505.367 126.273 505.563 126.163 505.763 126.07C505.537 125.837 505.343 125.59 505.183 125.33C505.03 125.063 504.953 124.77 504.953 124.45C504.953 124.163 505.003 123.913 505.103 123.7C505.21 123.487 505.35 123.31 505.523 123.17C505.703 123.023 505.907 122.917 506.133 122.85C506.36 122.777 506.597 122.74 506.843 122.74C507.09 122.74 507.323 122.777 507.543 122.85C507.763 122.917 507.957 123.02 508.123 123.16C508.29 123.3 508.423 123.473 508.523 123.68C508.623 123.887 508.673 124.127 508.673 124.4C508.673 124.633 508.63 124.843 508.543 125.03C508.463 125.217 508.353 125.387 508.213 125.54C508.073 125.693 507.91 125.83 507.723 125.95C507.543 126.07 507.353 126.177 507.153 126.27L508.563 127.72L509.453 126.22H510.553L509.193 128.33ZM507.763 124.42C507.763 124.167 507.677 123.953 507.503 123.78C507.337 123.607 507.12 123.52 506.853 123.52C506.58 123.52 506.353 123.607 506.173 123.78C505.993 123.953 505.903 124.18 505.903 124.46C505.903 124.573 505.923 124.687 505.963 124.8C506.01 124.913 506.067 125.027 506.133 125.14C506.2 125.247 506.273 125.347 506.353 125.44C506.44 125.533 506.523 125.617 506.603 125.69C506.75 125.623 506.893 125.55 507.033 125.47C507.173 125.39 507.297 125.297 507.403 125.19C507.51 125.083 507.597 124.967 507.663 124.84C507.73 124.713 507.763 124.573 507.763 124.42ZM506.313 126.68C505.967 126.827 505.69 127.01 505.483 127.23C505.277 127.45 505.173 127.74 505.173 128.1C505.173 128.287 505.21 128.457 505.283 128.61C505.357 128.763 505.453 128.893 505.573 129C505.7 129.107 505.843 129.19 506.003 129.25C506.163 129.303 506.327 129.33 506.493 129.33C506.833 129.33 507.12 129.257 507.353 129.11C507.587 128.957 507.8 128.733 507.993 128.44L506.313 126.68ZM517.85 128.9C517.57 129.28 517.207 129.59 516.76 129.83C516.313 130.063 515.777 130.18 515.15 130.18C514.61 130.18 514.11 130.09 513.65 129.91C513.197 129.723 512.803 129.467 512.47 129.14C512.143 128.807 511.887 128.413 511.7 127.96C511.513 127.5 511.42 126.997 511.42 126.45C511.42 125.897 511.513 125.393 511.7 124.94C511.893 124.48 512.157 124.09 512.49 123.77C512.83 123.443 513.23 123.19 513.69 123.01C514.15 122.83 514.65 122.74 515.19 122.74C515.43 122.74 515.673 122.763 515.92 122.81C516.167 122.857 516.403 122.927 516.63 123.02C516.857 123.113 517.063 123.23 517.25 123.37C517.437 123.503 517.597 123.66 517.73 123.84L516.95 124.44C516.777 124.2 516.53 124.003 516.21 123.85C515.897 123.69 515.557 123.61 515.19 123.61C514.777 123.61 514.403 123.687 514.07 123.84C513.743 123.987 513.463 124.19 513.23 124.45C512.997 124.71 512.817 125.013 512.69 125.36C512.563 125.7 512.5 126.063 512.5 126.45C512.5 126.85 512.56 127.223 512.68 127.57C512.807 127.917 512.983 128.22 513.21 128.48C513.443 128.733 513.723 128.933 514.05 129.08C514.383 129.227 514.753 129.3 515.16 129.3C515.56 129.3 515.923 129.22 516.25 129.06C516.577 128.9 516.847 128.667 517.06 128.36L517.85 128.9Z" fill="#858B9C"/>
<path d="M498 131H518V131.5H498V131Z" fill="#858B9C"/>
</g>
<rect x="182" y="98" width="206" height="32" fill="#272833"/>
<path d="M256.263 118.652V112.64H257.451V118.652H256.263ZM257.667 110.876C257.667 111.092 257.591 111.276 257.439 111.428C257.287 111.58 257.095 111.656 256.863 111.656C256.631 111.656 256.439 111.58 256.287 111.428C256.135 111.268 256.059 111.08 256.059 110.864C256.059 110.656 256.135 110.476 256.287 110.324C256.447 110.164 256.639 110.084 256.863 110.084C257.095 110.084 257.287 110.164 257.439 110.324C257.591 110.484 257.667 110.668 257.667 110.876ZM261.087 114.944H264.879V116H259.899V107.504H261.087V114.944ZM271.517 113.144C271.517 113.584 271.437 113.988 271.277 114.356C271.125 114.724 270.909 115.044 270.629 115.316C270.357 115.58 270.033 115.788 269.657 115.94C269.281 116.084 268.877 116.156 268.445 116.156C268.013 116.156 267.609 116.084 267.233 115.94C266.857 115.788 266.533 115.58 266.261 115.316C265.989 115.044 265.773 114.724 265.613 114.356C265.461 113.988 265.385 113.584 265.385 113.144C265.385 112.704 265.461 112.304 265.613 111.944C265.773 111.576 265.989 111.26 266.261 110.996C266.533 110.732 266.857 110.528 267.233 110.384C267.609 110.232 268.013 110.156 268.445 110.156C268.877 110.156 269.281 110.232 269.657 110.384C270.033 110.528 270.357 110.732 270.629 110.996C270.909 111.26 271.125 111.576 271.277 111.944C271.437 112.304 271.517 112.704 271.517 113.144ZM270.341 113.144C270.341 112.872 270.297 112.612 270.209 112.364C270.129 112.116 270.009 111.9 269.849 111.716C269.689 111.524 269.489 111.372 269.249 111.26C269.017 111.148 268.749 111.092 268.445 111.092C268.141 111.092 267.869 111.148 267.629 111.26C267.397 111.372 267.201 111.524 267.041 111.716C266.881 111.9 266.757 112.116 266.669 112.364C266.589 112.612 266.549 112.872 266.549 113.144C266.549 113.416 266.589 113.676 266.669 113.924C266.757 114.172 266.881 114.392 267.041 114.584C267.201 114.776 267.397 114.928 267.629 115.04C267.869 115.152 268.141 115.208 268.445 115.208C268.749 115.208 269.017 115.152 269.249 115.04C269.489 114.928 269.689 114.776 269.849 114.584C270.009 114.392 270.129 114.172 270.209 113.924C270.297 113.676 270.341 113.416 270.341 113.144ZM280.581 115.148C280.373 115.468 280.085 115.716 279.717 115.892C279.357 116.068 278.973 116.156 278.565 116.156C278.125 116.156 277.729 116.08 277.377 115.928C277.025 115.768 276.725 115.552 276.477 115.28C276.229 115.008 276.037 114.688 275.901 114.32C275.765 113.952 275.697 113.56 275.697 113.144C275.697 112.728 275.765 112.34 275.901 111.98C276.037 111.612 276.229 111.292 276.477 111.02C276.733 110.748 277.037 110.536 277.389 110.384C277.741 110.232 278.129 110.156 278.553 110.156C279.017 110.156 279.425 110.256 279.777 110.456C280.137 110.648 280.413 110.896 280.605 111.2H280.641V110.312H281.733V118.88H280.605V115.148H280.581ZM276.873 113.144C276.873 113.408 276.913 113.664 276.993 113.912C277.073 114.16 277.193 114.38 277.353 114.572C277.513 114.764 277.709 114.92 277.941 115.04C278.173 115.152 278.445 115.208 278.757 115.208C279.045 115.208 279.305 115.152 279.537 115.04C279.777 114.928 279.981 114.78 280.149 114.596C280.317 114.404 280.445 114.184 280.533 113.936C280.629 113.688 280.677 113.428 280.677 113.156C280.677 112.884 280.629 112.624 280.533 112.376C280.445 112.128 280.317 111.908 280.149 111.716C279.981 111.524 279.777 111.372 279.537 111.26C279.305 111.148 279.045 111.092 278.757 111.092C278.445 111.092 278.173 111.148 277.941 111.26C277.709 111.372 277.513 111.524 277.353 111.716C277.193 111.908 277.073 112.128 276.993 112.376C276.913 112.624 276.873 112.88 276.873 113.144ZM287.683 116C287.667 115.856 287.655 115.696 287.647 115.52C287.639 115.336 287.635 115.184 287.635 115.064H287.611C287.467 115.368 287.223 115.628 286.879 115.844C286.543 116.052 286.167 116.156 285.751 116.156C285.383 116.156 285.063 116.096 284.791 115.976C284.527 115.856 284.307 115.692 284.131 115.484C283.963 115.268 283.835 115.02 283.747 114.74C283.667 114.46 283.627 114.16 283.627 113.84V110.312H284.755V113.456C284.755 113.688 284.771 113.912 284.803 114.128C284.843 114.336 284.911 114.52 285.007 114.68C285.103 114.84 285.235 114.968 285.403 115.064C285.571 115.16 285.787 115.208 286.051 115.208C286.507 115.208 286.875 115.04 287.155 114.704C287.435 114.36 287.575 113.904 287.575 113.336V110.312H288.703V114.776C288.703 114.928 288.707 115.124 288.715 115.364C288.723 115.604 288.735 115.816 288.751 116H287.683ZM291.8 116H290.672V110.312H291.8V116ZM291.992 108.26C291.992 108.468 291.916 108.64 291.764 108.776C291.62 108.912 291.444 108.98 291.236 108.98C291.028 108.98 290.852 108.912 290.708 108.776C290.564 108.632 290.492 108.46 290.492 108.26C290.492 108.052 290.564 107.88 290.708 107.744C290.852 107.6 291.028 107.528 291.236 107.528C291.444 107.528 291.62 107.6 291.764 107.744C291.916 107.88 291.992 108.052 291.992 108.26ZM297.929 112.652C297.921 112.428 297.881 112.22 297.809 112.028C297.745 111.828 297.645 111.656 297.509 111.512C297.381 111.368 297.217 111.256 297.017 111.176C296.825 111.088 296.597 111.044 296.333 111.044C296.093 111.044 295.865 111.088 295.649 111.176C295.441 111.256 295.257 111.368 295.097 111.512C294.945 111.656 294.817 111.828 294.713 112.028C294.617 112.22 294.561 112.428 294.545 112.652H297.929ZM299.069 113.108C299.069 113.172 299.069 113.236 299.069 113.3C299.069 113.364 299.065 113.428 299.057 113.492H294.545C294.553 113.732 294.605 113.96 294.701 114.176C294.805 114.384 294.941 114.568 295.109 114.728C295.277 114.88 295.469 115 295.685 115.088C295.909 115.176 296.145 115.22 296.393 115.22C296.777 115.22 297.109 115.136 297.389 114.968C297.669 114.8 297.889 114.596 298.049 114.356L298.841 114.992C298.537 115.392 298.177 115.688 297.761 115.88C297.353 116.064 296.897 116.156 296.393 116.156C295.961 116.156 295.561 116.084 295.193 115.94C294.825 115.796 294.509 115.596 294.245 115.34C293.981 115.076 293.773 114.76 293.621 114.392C293.469 114.024 293.393 113.616 293.393 113.168C293.393 112.728 293.465 112.324 293.609 111.956C293.761 111.58 293.969 111.26 294.233 110.996C294.497 110.732 294.809 110.528 295.169 110.384C295.529 110.232 295.917 110.156 296.333 110.156C296.749 110.156 297.125 110.224 297.461 110.36C297.805 110.496 298.093 110.692 298.325 110.948C298.565 111.204 298.749 111.516 298.877 111.884C299.005 112.244 299.069 112.652 299.069 113.108ZM300.644 111.536C300.644 111.384 300.64 111.188 300.632 110.948C300.624 110.708 300.612 110.496 300.596 110.312H301.664C301.68 110.456 301.692 110.624 301.7 110.816C301.708 111 301.712 111.152 301.712 111.272H301.748C301.908 110.936 302.14 110.668 302.444 110.468C302.756 110.26 303.104 110.156 303.488 110.156C303.664 110.156 303.812 110.172 303.932 110.204L303.884 111.248C303.724 111.208 303.552 111.188 303.368 111.188C303.096 111.188 302.86 111.24 302.66 111.344C302.46 111.44 302.292 111.572 302.156 111.74C302.028 111.908 301.932 112.104 301.868 112.328C301.804 112.544 301.772 112.772 301.772 113.012V116H300.644V111.536ZM310.541 113.144C310.541 113.584 310.461 113.988 310.301 114.356C310.149 114.724 309.933 115.044 309.653 115.316C309.381 115.58 309.057 115.788 308.681 115.94C308.305 116.084 307.901 116.156 307.469 116.156C307.037 116.156 306.633 116.084 306.257 115.94C305.881 115.788 305.557 115.58 305.285 115.316C305.013 115.044 304.797 114.724 304.637 114.356C304.485 113.988 304.409 113.584 304.409 113.144C304.409 112.704 304.485 112.304 304.637 111.944C304.797 111.576 305.013 111.26 305.285 110.996C305.557 110.732 305.881 110.528 306.257 110.384C306.633 110.232 307.037 110.156 307.469 110.156C307.901 110.156 308.305 110.232 308.681 110.384C309.057 110.528 309.381 110.732 309.653 110.996C309.933 111.26 310.149 111.576 310.301 111.944C310.461 112.304 310.541 112.704 310.541 113.144ZM309.365 113.144C309.365 112.872 309.321 112.612 309.233 112.364C309.153 112.116 309.033 111.9 308.873 111.716C308.713 111.524 308.513 111.372 308.273 111.26C308.041 111.148 307.773 111.092 307.469 111.092C307.165 111.092 306.893 111.148 306.653 111.26C306.421 111.372 306.225 111.524 306.065 111.716C305.905 111.9 305.781 112.116 305.693 112.364C305.613 112.612 305.573 112.872 305.573 113.144C305.573 113.416 305.613 113.676 305.693 113.924C305.781 114.172 305.905 114.392 306.065 114.584C306.225 114.776 306.421 114.928 306.653 115.04C306.893 115.152 307.165 115.208 307.469 115.208C307.773 115.208 308.041 115.152 308.273 115.04C308.513 114.928 308.713 114.776 308.873 114.584C309.033 114.392 309.153 114.172 309.233 113.924C309.321 113.676 309.365 113.416 309.365 113.144ZM313.725 113.516H312.537V107.504H313.725V113.516ZM313.941 115.28C313.941 115.488 313.865 115.672 313.713 115.832C313.561 115.992 313.369 116.072 313.137 116.072C312.913 116.072 312.721 115.996 312.561 115.844C312.409 115.684 312.333 115.5 312.333 115.292C312.333 115.076 312.409 114.892 312.561 114.74C312.713 114.58 312.905 114.5 313.137 114.5C313.369 114.5 313.561 114.576 313.713 114.728C313.865 114.88 313.941 115.064 313.941 115.28Z" fill="white"/>
<path d="M188.328 80.536H188.34L191.184 73.504H192.504V82H191.64V74.62H191.616L188.544 82H188.088L185.016 74.62H184.992V82H184.128V73.504H185.448L188.328 80.536ZM195.537 82H194.721V76.384H195.537V82ZM195.705 74.224C195.705 74.392 195.645 74.532 195.525 74.644C195.405 74.748 195.273 74.8 195.129 74.8C194.985 74.8 194.853 74.748 194.733 74.644C194.613 74.532 194.553 74.392 194.553 74.224C194.553 74.056 194.613 73.92 194.733 73.816C194.853 73.704 194.985 73.648 195.129 73.648C195.273 73.648 195.405 73.704 195.525 73.816C195.645 73.92 195.705 74.056 195.705 74.224ZM198.441 76.384C198.457 76.536 198.469 76.704 198.477 76.888C198.485 77.072 198.489 77.224 198.489 77.344H198.513C198.673 77.016 198.933 76.752 199.293 76.552C199.653 76.344 200.033 76.24 200.433 76.24C201.145 76.24 201.677 76.452 202.029 76.876C202.389 77.3 202.569 77.86 202.569 78.556V82H201.753V78.892C201.753 78.596 201.729 78.328 201.681 78.088C201.633 77.848 201.549 77.644 201.429 77.476C201.317 77.3 201.161 77.164 200.961 77.068C200.769 76.972 200.525 76.924 200.229 76.924C200.013 76.924 199.801 76.968 199.593 77.056C199.393 77.144 199.213 77.28 199.053 77.464C198.893 77.64 198.765 77.868 198.669 78.148C198.573 78.42 198.525 78.744 198.525 79.12V82H197.709V77.62C197.709 77.468 197.705 77.272 197.697 77.032C197.689 76.792 197.677 76.576 197.661 76.384H198.441ZM205.81 81.424C205.81 81.592 205.75 81.744 205.63 81.88C205.51 82.008 205.354 82.072 205.162 82.072C204.97 82.072 204.814 82.008 204.694 81.88C204.574 81.744 204.514 81.592 204.514 81.424C204.514 81.256 204.574 81.108 204.694 80.98C204.814 80.844 204.97 80.776 205.162 80.776C205.354 80.776 205.51 80.844 205.63 80.98C205.75 81.108 205.81 81.256 205.81 81.424ZM216.015 79.192C216.015 79.616 215.939 80.008 215.787 80.368C215.643 80.728 215.439 81.04 215.175 81.304C214.911 81.568 214.595 81.776 214.227 81.928C213.859 82.072 213.455 82.144 213.015 82.144C212.583 82.144 212.183 82.072 211.815 81.928C211.447 81.776 211.131 81.568 210.867 81.304C210.603 81.04 210.395 80.728 210.243 80.368C210.099 80.008 210.027 79.616 210.027 79.192C210.027 78.768 210.099 78.376 210.243 78.016C210.395 77.656 210.603 77.344 210.867 77.08C211.131 76.816 211.447 76.612 211.815 76.468C212.183 76.316 212.583 76.24 213.015 76.24C213.455 76.24 213.859 76.316 214.227 76.468C214.595 76.612 214.911 76.816 215.175 77.08C215.439 77.344 215.643 77.656 215.787 78.016C215.939 78.376 216.015 78.768 216.015 79.192ZM215.151 79.192C215.151 78.88 215.099 78.588 214.995 78.316C214.899 78.036 214.759 77.796 214.575 77.596C214.391 77.388 214.167 77.224 213.903 77.104C213.639 76.984 213.343 76.924 213.015 76.924C212.687 76.924 212.391 76.984 212.127 77.104C211.871 77.224 211.651 77.388 211.467 77.596C211.283 77.796 211.139 78.036 211.035 78.316C210.939 78.588 210.891 78.88 210.891 79.192C210.891 79.504 210.939 79.8 211.035 80.08C211.139 80.352 211.283 80.592 211.467 80.8C211.651 81 211.871 81.16 212.127 81.28C212.391 81.392 212.687 81.448 213.015 81.448C213.343 81.448 213.639 81.392 213.903 81.28C214.167 81.16 214.391 81 214.575 80.8C214.759 80.592 214.899 80.352 214.995 80.08C215.099 79.8 215.151 79.504 215.151 79.192ZM217.771 77.62C217.771 77.468 217.767 77.272 217.759 77.032C217.751 76.792 217.739 76.576 217.723 76.384H218.503C218.519 76.536 218.531 76.704 218.539 76.888C218.547 77.072 218.551 77.224 218.551 77.344H218.575C218.735 77.016 218.975 76.752 219.295 76.552C219.615 76.344 219.975 76.24 220.375 76.24C220.479 76.24 220.571 76.244 220.651 76.252C220.739 76.26 220.827 76.276 220.915 76.3L220.807 77.068C220.759 77.052 220.679 77.036 220.567 77.02C220.455 77.004 220.343 76.996 220.231 76.996C220.015 76.996 219.807 77.036 219.607 77.116C219.407 77.196 219.231 77.324 219.079 77.5C218.935 77.668 218.815 77.888 218.719 78.16C218.631 78.424 218.587 78.744 218.587 79.12V82H217.771V77.62ZM226.505 81.052C226.265 81.412 225.953 81.684 225.569 81.868C225.185 82.052 224.789 82.144 224.381 82.144C223.941 82.144 223.541 82.068 223.181 81.916C222.829 81.764 222.525 81.556 222.269 81.292C222.021 81.028 221.825 80.716 221.681 80.356C221.545 79.996 221.477 79.608 221.477 79.192C221.477 78.776 221.545 78.388 221.681 78.028C221.825 77.668 222.021 77.356 222.269 77.092C222.525 76.828 222.829 76.62 223.181 76.468C223.541 76.316 223.941 76.24 224.381 76.24C224.789 76.24 225.185 76.336 225.569 76.528C225.953 76.712 226.265 76.988 226.505 77.356H226.529V72.928H227.345V82H226.529V81.052H226.505ZM222.341 79.192C222.341 79.504 222.389 79.8 222.485 80.08C222.581 80.352 222.717 80.592 222.893 80.8C223.077 81 223.301 81.16 223.565 81.28C223.829 81.392 224.129 81.448 224.465 81.448C224.777 81.448 225.065 81.392 225.329 81.28C225.593 81.16 225.821 81 226.013 80.8C226.205 80.6 226.353 80.364 226.457 80.092C226.569 79.812 226.625 79.512 226.625 79.192C226.625 78.872 226.569 78.576 226.457 78.304C226.353 78.024 226.205 77.784 226.013 77.584C225.821 77.376 225.593 77.216 225.329 77.104C225.065 76.984 224.777 76.924 224.465 76.924C224.129 76.924 223.829 76.984 223.565 77.104C223.301 77.224 223.077 77.388 222.893 77.596C222.717 77.796 222.581 78.036 222.485 78.316C222.389 78.588 222.341 78.88 222.341 79.192ZM233.809 78.76C233.785 78.232 233.613 77.796 233.293 77.452C232.981 77.1 232.533 76.924 231.949 76.924C231.677 76.924 231.425 76.976 231.193 77.08C230.961 77.176 230.757 77.312 230.581 77.488C230.405 77.656 230.265 77.852 230.161 78.076C230.057 78.292 229.997 78.52 229.981 78.76H233.809ZM234.637 79.024C234.637 79.08 234.637 79.14 234.637 79.204C234.637 79.268 234.633 79.336 234.625 79.408H229.969C229.977 79.688 230.033 79.952 230.137 80.2C230.241 80.448 230.385 80.664 230.569 80.848C230.753 81.032 230.969 81.18 231.217 81.292C231.465 81.396 231.733 81.448 232.021 81.448C232.445 81.448 232.809 81.352 233.113 81.16C233.425 80.96 233.661 80.732 233.821 80.476L234.433 80.956C234.097 81.38 233.725 81.684 233.317 81.868C232.917 82.052 232.485 82.144 232.021 82.144C231.605 82.144 231.217 82.072 230.857 81.928C230.505 81.776 230.201 81.568 229.945 81.304C229.689 81.04 229.485 80.728 229.333 80.368C229.189 80.008 229.117 79.616 229.117 79.192C229.117 78.768 229.189 78.376 229.333 78.016C229.477 77.656 229.677 77.344 229.933 77.08C230.189 76.816 230.489 76.612 230.833 76.468C231.177 76.316 231.549 76.24 231.949 76.24C232.389 76.24 232.777 76.316 233.113 76.468C233.449 76.612 233.729 76.812 233.953 77.068C234.177 77.316 234.345 77.608 234.457 77.944C234.577 78.28 234.637 78.64 234.637 79.024ZM236.393 77.62C236.393 77.468 236.389 77.272 236.381 77.032C236.373 76.792 236.361 76.576 236.345 76.384H237.125C237.141 76.536 237.153 76.704 237.161 76.888C237.169 77.072 237.173 77.224 237.173 77.344H237.197C237.357 77.016 237.597 76.752 237.917 76.552C238.237 76.344 238.597 76.24 238.997 76.24C239.101 76.24 239.193 76.244 239.273 76.252C239.361 76.26 239.449 76.276 239.537 76.3L239.429 77.068C239.381 77.052 239.301 77.036 239.189 77.02C239.077 77.004 238.965 76.996 238.853 76.996C238.637 76.996 238.429 77.036 238.229 77.116C238.029 77.196 237.853 77.324 237.701 77.5C237.557 77.668 237.437 77.888 237.341 78.16C237.253 78.424 237.209 78.744 237.209 79.12V82H236.393V77.62ZM246.933 82H246.069V74.572L244.533 75.88L244.005 75.28L246.165 73.504H246.933V82ZM253.078 73.288C253.606 73.288 254.046 73.42 254.398 73.684C254.758 73.94 255.046 74.28 255.262 74.704C255.478 75.12 255.63 75.596 255.718 76.132C255.814 76.668 255.862 77.212 255.862 77.764C255.862 78.316 255.814 78.86 255.718 79.396C255.63 79.924 255.478 80.4 255.262 80.824C255.046 81.24 254.758 81.576 254.398 81.832C254.046 82.088 253.606 82.216 253.078 82.216C252.542 82.216 252.094 82.088 251.734 81.832C251.382 81.576 251.098 81.24 250.882 80.824C250.666 80.4 250.514 79.924 250.426 79.396C250.338 78.86 250.294 78.316 250.294 77.764C250.294 77.212 250.338 76.668 250.426 76.132C250.514 75.596 250.666 75.12 250.882 74.704C251.098 74.28 251.382 73.94 251.734 73.684C252.094 73.42 252.542 73.288 253.078 73.288ZM253.078 74.02C252.702 74.02 252.39 74.136 252.142 74.368C251.894 74.6 251.698 74.896 251.554 75.256C251.41 75.616 251.31 76.02 251.254 76.468C251.198 76.908 251.17 77.34 251.17 77.764C251.17 78.188 251.198 78.62 251.254 79.06C251.31 79.5 251.41 79.9 251.554 80.26C251.698 80.612 251.894 80.904 252.142 81.136C252.39 81.36 252.702 81.472 253.078 81.472C253.446 81.472 253.754 81.36 254.002 81.136C254.25 80.904 254.446 80.612 254.59 80.26C254.734 79.9 254.834 79.5 254.89 79.06C254.954 78.62 254.986 78.188 254.986 77.764C254.986 77.34 254.954 76.908 254.89 76.468C254.834 76.02 254.734 75.616 254.59 75.256C254.446 74.896 254.25 74.6 254.002 74.368C253.754 74.136 253.446 74.02 253.078 74.02ZM262.691 74.404C262.283 74.164 261.775 74.044 261.167 74.044C260.471 74.044 259.895 74.252 259.439 74.668C258.991 75.084 258.683 75.652 258.515 76.372H262.115L261.899 77.032H258.407C258.391 77.152 258.375 77.28 258.359 77.416C258.351 77.544 258.347 77.676 258.347 77.812C258.347 77.908 258.351 78.024 258.359 78.16C258.367 78.288 258.379 78.4 258.395 78.496H261.467L261.251 79.156H258.479C258.543 79.508 258.655 79.824 258.815 80.104C258.975 80.384 259.171 80.628 259.403 80.836C259.643 81.036 259.911 81.192 260.207 81.304C260.511 81.408 260.831 81.46 261.167 81.46C261.479 81.46 261.767 81.424 262.031 81.352C262.303 81.272 262.559 81.148 262.799 80.98L263.147 81.652C262.611 82.028 261.915 82.216 261.059 82.216C260.579 82.216 260.139 82.132 259.739 81.964C259.347 81.788 259.003 81.56 258.707 81.28C258.419 80.992 258.183 80.664 257.999 80.296C257.815 79.928 257.687 79.548 257.615 79.156H256.703L256.943 78.496H257.531C257.523 78.416 257.515 78.312 257.507 78.184C257.499 78.056 257.495 77.936 257.495 77.824C257.495 77.688 257.499 77.548 257.507 77.404C257.515 77.252 257.527 77.128 257.543 77.032H256.715L256.955 76.372H257.639C257.751 75.884 257.915 75.448 258.131 75.064C258.355 74.68 258.623 74.356 258.935 74.092C259.247 73.828 259.595 73.628 259.979 73.492C260.363 73.356 260.771 73.288 261.203 73.288C261.539 73.288 261.863 73.324 262.175 73.396C262.487 73.46 262.759 73.552 262.991 73.672L262.691 74.404ZM265.728 81.424C265.728 81.592 265.668 81.744 265.548 81.88C265.428 82.008 265.272 82.072 265.08 82.072C264.888 82.072 264.732 82.008 264.612 81.88C264.492 81.744 264.432 81.592 264.432 81.424C264.432 81.256 264.492 81.108 264.612 80.98C264.732 80.844 264.888 80.776 265.08 80.776C265.272 80.776 265.428 80.844 265.548 80.98C265.668 81.108 265.728 81.256 265.728 81.424ZM272.795 80.884H272.819L275.579 73.504H276.503L273.251 82H272.339L269.099 73.504H270.035L272.795 80.884ZM280.655 78.376C280.655 77.888 280.527 77.524 280.271 77.284C280.015 77.044 279.643 76.924 279.155 76.924C278.819 76.924 278.507 76.984 278.219 77.104C277.931 77.224 277.687 77.384 277.487 77.584L277.031 77.044C277.263 76.812 277.567 76.62 277.943 76.468C278.327 76.316 278.759 76.24 279.239 76.24C279.543 76.24 279.827 76.284 280.091 76.372C280.355 76.452 280.587 76.576 280.787 76.744C280.987 76.912 281.143 77.124 281.255 77.38C281.367 77.636 281.423 77.936 281.423 78.28V80.74C281.423 80.956 281.431 81.18 281.447 81.412C281.463 81.644 281.487 81.84 281.519 82H280.787C280.763 81.864 280.743 81.716 280.727 81.556C280.711 81.396 280.703 81.24 280.703 81.088H280.679C280.423 81.464 280.131 81.736 279.803 81.904C279.483 82.064 279.095 82.144 278.639 82.144C278.423 82.144 278.199 82.112 277.967 82.048C277.743 81.992 277.535 81.896 277.343 81.76C277.159 81.624 277.003 81.448 276.875 81.232C276.755 81.016 276.695 80.752 276.695 80.44C276.695 80.008 276.803 79.668 277.019 79.42C277.243 79.164 277.539 78.976 277.907 78.856C278.275 78.728 278.695 78.648 279.167 78.616C279.647 78.576 280.143 78.556 280.655 78.556V78.376ZM280.415 79.192C280.079 79.192 279.739 79.208 279.395 79.24C279.059 79.264 278.751 79.32 278.471 79.408C278.199 79.488 277.975 79.608 277.799 79.768C277.623 79.928 277.535 80.14 277.535 80.404C277.535 80.604 277.571 80.772 277.643 80.908C277.723 81.044 277.827 81.156 277.955 81.244C278.083 81.324 278.223 81.384 278.375 81.424C278.535 81.456 278.695 81.472 278.855 81.472C279.143 81.472 279.399 81.424 279.623 81.328C279.847 81.224 280.035 81.088 280.187 80.92C280.339 80.744 280.455 80.544 280.535 80.32C280.615 80.096 280.655 79.86 280.655 79.612V79.192H280.415ZM284.365 82H283.549V72.928H284.365V82ZM287.377 82H286.561V76.384H287.377V82ZM287.545 74.224C287.545 74.392 287.485 74.532 287.365 74.644C287.245 74.748 287.113 74.8 286.969 74.8C286.825 74.8 286.693 74.748 286.573 74.644C286.453 74.532 286.393 74.392 286.393 74.224C286.393 74.056 286.453 73.92 286.573 73.816C286.693 73.704 286.825 73.648 286.969 73.648C287.113 73.648 287.245 73.704 287.365 73.816C287.485 73.92 287.545 74.056 287.545 74.224ZM294.169 81.052C293.929 81.412 293.617 81.684 293.233 81.868C292.849 82.052 292.453 82.144 292.045 82.144C291.605 82.144 291.205 82.068 290.845 81.916C290.493 81.764 290.189 81.556 289.933 81.292C289.685 81.028 289.489 80.716 289.345 80.356C289.209 79.996 289.141 79.608 289.141 79.192C289.141 78.776 289.209 78.388 289.345 78.028C289.489 77.668 289.685 77.356 289.933 77.092C290.189 76.828 290.493 76.62 290.845 76.468C291.205 76.316 291.605 76.24 292.045 76.24C292.453 76.24 292.849 76.336 293.233 76.528C293.617 76.712 293.929 76.988 294.169 77.356H294.193V72.928H295.009V82H294.193V81.052H294.169ZM290.005 79.192C290.005 79.504 290.053 79.8 290.149 80.08C290.245 80.352 290.381 80.592 290.557 80.8C290.741 81 290.965 81.16 291.229 81.28C291.493 81.392 291.793 81.448 292.129 81.448C292.441 81.448 292.729 81.392 292.993 81.28C293.257 81.16 293.485 81 293.677 80.8C293.869 80.6 294.017 80.364 294.121 80.092C294.233 79.812 294.289 79.512 294.289 79.192C294.289 78.872 294.233 78.576 294.121 78.304C294.017 78.024 293.869 77.784 293.677 77.584C293.485 77.376 293.257 77.216 292.993 77.104C292.729 76.984 292.441 76.924 292.129 76.924C291.793 76.924 291.493 76.984 291.229 77.104C290.965 77.224 290.741 77.388 290.557 77.596C290.381 77.796 290.245 78.036 290.149 78.316C290.053 78.588 290.005 78.88 290.005 79.192ZM302.565 77.068H301.245V82H300.429V77.068H299.253V76.384H300.429V74.848C300.429 74.208 300.585 73.704 300.897 73.336C301.209 72.968 301.689 72.784 302.337 72.784C302.441 72.784 302.553 72.792 302.673 72.808C302.793 72.816 302.905 72.836 303.009 72.868L302.865 73.588C302.777 73.564 302.689 73.544 302.601 73.528C302.513 73.512 302.413 73.504 302.301 73.504C302.085 73.504 301.905 73.54 301.761 73.612C301.625 73.684 301.517 73.788 301.437 73.924C301.365 74.052 301.313 74.204 301.281 74.38C301.257 74.556 301.245 74.744 301.245 74.944V76.384H302.565V77.068ZM309.308 79.192C309.308 79.616 309.232 80.008 309.08 80.368C308.936 80.728 308.732 81.04 308.468 81.304C308.204 81.568 307.888 81.776 307.52 81.928C307.152 82.072 306.748 82.144 306.308 82.144C305.876 82.144 305.476 82.072 305.108 81.928C304.74 81.776 304.424 81.568 304.16 81.304C303.896 81.04 303.688 80.728 303.536 80.368C303.392 80.008 303.32 79.616 303.32 79.192C303.32 78.768 303.392 78.376 303.536 78.016C303.688 77.656 303.896 77.344 304.16 77.08C304.424 76.816 304.74 76.612 305.108 76.468C305.476 76.316 305.876 76.24 306.308 76.24C306.748 76.24 307.152 76.316 307.52 76.468C307.888 76.612 308.204 76.816 308.468 77.08C308.732 77.344 308.936 77.656 309.08 78.016C309.232 78.376 309.308 78.768 309.308 79.192ZM308.444 79.192C308.444 78.88 308.392 78.588 308.288 78.316C308.192 78.036 308.052 77.796 307.868 77.596C307.684 77.388 307.46 77.224 307.196 77.104C306.932 76.984 306.636 76.924 306.308 76.924C305.98 76.924 305.684 76.984 305.42 77.104C305.164 77.224 304.944 77.388 304.76 77.596C304.576 77.796 304.432 78.036 304.328 78.316C304.232 78.588 304.184 78.88 304.184 79.192C304.184 79.504 304.232 79.8 304.328 80.08C304.432 80.352 304.576 80.592 304.76 80.8C304.944 81 305.164 81.16 305.42 81.28C305.684 81.392 305.98 81.448 306.308 81.448C306.636 81.448 306.932 81.392 307.196 81.28C307.46 81.16 307.684 81 307.868 80.8C308.052 80.592 308.192 80.352 308.288 80.08C308.392 79.8 308.444 79.504 308.444 79.192ZM311.064 77.62C311.064 77.468 311.06 77.272 311.052 77.032C311.044 76.792 311.032 76.576 311.016 76.384H311.796C311.812 76.536 311.824 76.704 311.832 76.888C311.84 77.072 311.844 77.224 311.844 77.344H311.868C312.028 77.016 312.268 76.752 312.588 76.552C312.908 76.344 313.268 76.24 313.668 76.24C313.772 76.24 313.864 76.244 313.944 76.252C314.032 76.26 314.12 76.276 314.208 76.3L314.1 77.068C314.052 77.052 313.972 77.036 313.86 77.02C313.748 77.004 313.636 76.996 313.524 76.996C313.308 76.996 313.1 77.036 312.9 77.116C312.7 77.196 312.524 77.324 312.372 77.5C312.228 77.668 312.108 77.888 312.012 78.16C311.924 78.424 311.88 78.744 311.88 79.12V82H311.064V77.62ZM319.877 77.176H320.249C320.521 77.176 320.777 77.148 321.017 77.092C321.257 77.036 321.465 76.948 321.641 76.828C321.825 76.7 321.969 76.536 322.073 76.336C322.177 76.136 322.229 75.896 322.229 75.616C322.229 75.376 322.185 75.16 322.097 74.968C322.009 74.768 321.885 74.6 321.725 74.464C321.573 74.32 321.393 74.212 321.185 74.14C320.985 74.06 320.773 74.02 320.549 74.02C320.189 74.02 319.869 74.104 319.589 74.272C319.317 74.44 319.097 74.688 318.929 75.016L318.197 74.632C318.461 74.176 318.797 73.84 319.205 73.624C319.613 73.4 320.077 73.288 320.597 73.288C320.933 73.288 321.249 73.34 321.545 73.444C321.849 73.54 322.113 73.684 322.337 73.876C322.569 74.068 322.749 74.308 322.877 74.596C323.013 74.876 323.081 75.2 323.081 75.568C323.081 76.072 322.941 76.496 322.661 76.84C322.381 77.176 322.029 77.4 321.605 77.512V77.536C322.093 77.64 322.501 77.876 322.829 78.244C323.157 78.604 323.321 79.072 323.321 79.648C323.321 80.056 323.245 80.42 323.093 80.74C322.949 81.052 322.753 81.32 322.505 81.544C322.257 81.76 321.965 81.924 321.629 82.036C321.301 82.156 320.953 82.216 320.585 82.216C319.961 82.216 319.417 82.068 318.953 81.772C318.489 81.468 318.137 81.036 317.897 80.476L318.713 80.176C318.857 80.584 319.097 80.904 319.433 81.136C319.769 81.36 320.153 81.472 320.585 81.472C320.825 81.472 321.057 81.432 321.281 81.352C321.513 81.264 321.713 81.144 321.881 80.992C322.057 80.832 322.197 80.64 322.301 80.416C322.405 80.192 322.457 79.936 322.457 79.648C322.457 79.328 322.393 79.06 322.265 78.844C322.145 78.62 321.981 78.44 321.773 78.304C321.565 78.168 321.329 78.072 321.065 78.016C320.801 77.952 320.529 77.92 320.249 77.92H319.877V77.176ZM327.75 73.288C328.278 73.288 328.718 73.42 329.07 73.684C329.43 73.94 329.718 74.28 329.934 74.704C330.15 75.12 330.302 75.596 330.39 76.132C330.486 76.668 330.534 77.212 330.534 77.764C330.534 78.316 330.486 78.86 330.39 79.396C330.302 79.924 330.15 80.4 329.934 80.824C329.718 81.24 329.43 81.576 329.07 81.832C328.718 82.088 328.278 82.216 327.75 82.216C327.214 82.216 326.766 82.088 326.406 81.832C326.054 81.576 325.77 81.24 325.554 80.824C325.338 80.4 325.186 79.924 325.098 79.396C325.01 78.86 324.966 78.316 324.966 77.764C324.966 77.212 325.01 76.668 325.098 76.132C325.186 75.596 325.338 75.12 325.554 74.704C325.77 74.28 326.054 73.94 326.406 73.684C326.766 73.42 327.214 73.288 327.75 73.288ZM327.75 74.02C327.374 74.02 327.062 74.136 326.814 74.368C326.566 74.6 326.37 74.896 326.226 75.256C326.082 75.616 325.982 76.02 325.926 76.468C325.87 76.908 325.842 77.34 325.842 77.764C325.842 78.188 325.87 78.62 325.926 79.06C325.982 79.5 326.082 79.9 326.226 80.26C326.37 80.612 326.566 80.904 326.814 81.136C327.062 81.36 327.374 81.472 327.75 81.472C328.118 81.472 328.426 81.36 328.674 81.136C328.922 80.904 329.118 80.612 329.262 80.26C329.406 79.9 329.506 79.5 329.562 79.06C329.626 78.62 329.658 78.188 329.658 77.764C329.658 77.34 329.626 76.908 329.562 76.468C329.506 76.02 329.406 75.616 329.262 75.256C329.118 74.896 328.922 74.6 328.674 74.368C328.426 74.136 328.118 74.02 327.75 74.02ZM339.93 81.052C339.69 81.412 339.378 81.684 338.994 81.868C338.61 82.052 338.214 82.144 337.806 82.144C337.366 82.144 336.966 82.068 336.606 81.916C336.254 81.764 335.95 81.556 335.694 81.292C335.446 81.028 335.25 80.716 335.106 80.356C334.97 79.996 334.902 79.608 334.902 79.192C334.902 78.776 334.97 78.388 335.106 78.028C335.25 77.668 335.446 77.356 335.694 77.092C335.95 76.828 336.254 76.62 336.606 76.468C336.966 76.316 337.366 76.24 337.806 76.24C338.214 76.24 338.61 76.336 338.994 76.528C339.378 76.712 339.69 76.988 339.93 77.356H339.954V72.928H340.77V82H339.954V81.052H339.93ZM335.766 79.192C335.766 79.504 335.814 79.8 335.91 80.08C336.006 80.352 336.142 80.592 336.318 80.8C336.502 81 336.726 81.16 336.99 81.28C337.254 81.392 337.554 81.448 337.89 81.448C338.202 81.448 338.49 81.392 338.754 81.28C339.018 81.16 339.246 81 339.438 80.8C339.63 80.6 339.778 80.364 339.882 80.092C339.994 79.812 340.05 79.512 340.05 79.192C340.05 78.872 339.994 78.576 339.882 78.304C339.778 78.024 339.63 77.784 339.438 77.584C339.246 77.376 339.018 77.216 338.754 77.104C338.49 76.984 338.202 76.924 337.89 76.924C337.554 76.924 337.254 76.984 336.99 77.104C336.726 77.224 336.502 77.388 336.318 77.596C336.142 77.796 336.006 78.036 335.91 78.316C335.814 78.588 335.766 78.88 335.766 79.192ZM346.491 78.376C346.491 77.888 346.363 77.524 346.107 77.284C345.851 77.044 345.479 76.924 344.991 76.924C344.655 76.924 344.343 76.984 344.055 77.104C343.767 77.224 343.523 77.384 343.323 77.584L342.867 77.044C343.099 76.812 343.403 76.62 343.779 76.468C344.163 76.316 344.595 76.24 345.075 76.24C345.379 76.24 345.663 76.284 345.927 76.372C346.191 76.452 346.423 76.576 346.623 76.744C346.823 76.912 346.979 77.124 347.091 77.38C347.203 77.636 347.259 77.936 347.259 78.28V80.74C347.259 80.956 347.267 81.18 347.283 81.412C347.299 81.644 347.323 81.84 347.355 82H346.623C346.599 81.864 346.579 81.716 346.563 81.556C346.547 81.396 346.539 81.24 346.539 81.088H346.515C346.259 81.464 345.967 81.736 345.639 81.904C345.319 82.064 344.931 82.144 344.475 82.144C344.259 82.144 344.035 82.112 343.803 82.048C343.579 81.992 343.371 81.896 343.179 81.76C342.995 81.624 342.839 81.448 342.711 81.232C342.591 81.016 342.531 80.752 342.531 80.44C342.531 80.008 342.639 79.668 342.855 79.42C343.079 79.164 343.375 78.976 343.743 78.856C344.111 78.728 344.531 78.648 345.003 78.616C345.483 78.576 345.979 78.556 346.491 78.556V78.376ZM346.251 79.192C345.915 79.192 345.575 79.208 345.231 79.24C344.895 79.264 344.587 79.32 344.307 79.408C344.035 79.488 343.811 79.608 343.635 79.768C343.459 79.928 343.371 80.14 343.371 80.404C343.371 80.604 343.407 80.772 343.479 80.908C343.559 81.044 343.663 81.156 343.791 81.244C343.919 81.324 344.059 81.384 344.211 81.424C344.371 81.456 344.531 81.472 344.691 81.472C344.979 81.472 345.235 81.424 345.459 81.328C345.683 81.224 345.871 81.088 346.023 80.92C346.175 80.744 346.291 80.544 346.371 80.32C346.451 80.096 346.491 79.86 346.491 79.612V79.192H346.251ZM351.293 81.124H351.317L353.057 76.384H353.945L351.149 83.452C350.981 83.884 350.765 84.228 350.501 84.484C350.245 84.748 349.873 84.88 349.385 84.88C349.137 84.88 348.893 84.856 348.653 84.808L348.737 84.064C348.929 84.128 349.129 84.16 349.337 84.16C349.617 84.16 349.837 84.072 349.997 83.896C350.157 83.728 350.297 83.484 350.417 83.164L350.873 81.988L348.473 76.384H349.385L351.293 81.124ZM358.209 77.716C358.089 77.484 357.905 77.296 357.657 77.152C357.417 77 357.141 76.924 356.829 76.924C356.685 76.924 356.541 76.94 356.397 76.972C356.253 77.004 356.125 77.056 356.013 77.128C355.901 77.2 355.809 77.292 355.737 77.404C355.673 77.516 355.641 77.648 355.641 77.8C355.641 78.064 355.749 78.268 355.965 78.412C356.181 78.548 356.521 78.664 356.985 78.76C357.649 78.896 358.137 79.096 358.449 79.36C358.769 79.616 358.929 79.964 358.929 80.404C358.929 80.724 358.865 80.996 358.737 81.22C358.617 81.436 358.457 81.616 358.257 81.76C358.057 81.896 357.829 81.992 357.573 82.048C357.325 82.112 357.073 82.144 356.817 82.144C356.393 82.144 355.981 82.056 355.581 81.88C355.181 81.704 354.853 81.428 354.597 81.052L355.245 80.572C355.389 80.82 355.601 81.028 355.881 81.196C356.161 81.364 356.469 81.448 356.805 81.448C356.981 81.448 357.149 81.432 357.309 81.4C357.469 81.368 357.609 81.312 357.729 81.232C357.849 81.152 357.945 81.052 358.017 80.932C358.089 80.804 358.125 80.648 358.125 80.464C358.125 80.168 357.981 79.948 357.693 79.804C357.413 79.652 357.005 79.512 356.469 79.384C356.301 79.344 356.121 79.296 355.929 79.24C355.745 79.176 355.573 79.088 355.413 78.976C355.253 78.856 355.121 78.708 355.017 78.532C354.913 78.356 354.861 78.136 354.861 77.872C354.861 77.584 354.917 77.34 355.029 77.14C355.141 76.932 355.289 76.764 355.473 76.636C355.665 76.5 355.881 76.4 356.121 76.336C356.361 76.272 356.609 76.24 356.865 76.24C357.257 76.24 357.637 76.328 358.005 76.504C358.373 76.68 358.649 76.928 358.833 77.248L358.209 77.716ZM365.929 77.068H364.609V82H363.793V77.068H362.617V76.384H363.793V74.848C363.793 74.208 363.949 73.704 364.261 73.336C364.573 72.968 365.053 72.784 365.701 72.784C365.805 72.784 365.917 72.792 366.037 72.808C366.157 72.816 366.269 72.836 366.373 72.868L366.229 73.588C366.141 73.564 366.053 73.544 365.965 73.528C365.877 73.512 365.777 73.504 365.665 73.504C365.449 73.504 365.269 73.54 365.125 73.612C364.989 73.684 364.881 73.788 364.801 73.924C364.729 74.052 364.677 74.204 364.645 74.38C364.621 74.556 364.609 74.744 364.609 74.944V76.384H365.929V77.068ZM367.092 77.62C367.092 77.468 367.088 77.272 367.08 77.032C367.072 76.792 367.06 76.576 367.044 76.384H367.824C367.84 76.536 367.852 76.704 367.86 76.888C367.868 77.072 367.872 77.224 367.872 77.344H367.896C368.056 77.016 368.296 76.752 368.616 76.552C368.936 76.344 369.296 76.24 369.696 76.24C369.8 76.24 369.892 76.244 369.972 76.252C370.06 76.26 370.148 76.276 370.236 76.3L370.128 77.068C370.08 77.052 370 77.036 369.888 77.02C369.776 77.004 369.664 76.996 369.552 76.996C369.336 76.996 369.128 77.036 368.928 77.116C368.728 77.196 368.552 77.324 368.4 77.5C368.256 77.668 368.136 77.888 368.04 78.16C367.952 78.424 367.908 78.744 367.908 79.12V82H367.092V77.62ZM376.785 79.192C376.785 79.616 376.709 80.008 376.557 80.368C376.413 80.728 376.209 81.04 375.945 81.304C375.681 81.568 375.365 81.776 374.997 81.928C374.629 82.072 374.225 82.144 373.785 82.144C373.353 82.144 372.953 82.072 372.585 81.928C372.217 81.776 371.901 81.568 371.637 81.304C371.373 81.04 371.165 80.728 371.013 80.368C370.869 80.008 370.797 79.616 370.797 79.192C370.797 78.768 370.869 78.376 371.013 78.016C371.165 77.656 371.373 77.344 371.637 77.08C371.901 76.816 372.217 76.612 372.585 76.468C372.953 76.316 373.353 76.24 373.785 76.24C374.225 76.24 374.629 76.316 374.997 76.468C375.365 76.612 375.681 76.816 375.945 77.08C376.209 77.344 376.413 77.656 376.557 78.016C376.709 78.376 376.785 78.768 376.785 79.192ZM375.921 79.192C375.921 78.88 375.869 78.588 375.765 78.316C375.669 78.036 375.529 77.796 375.345 77.596C375.161 77.388 374.937 77.224 374.673 77.104C374.409 76.984 374.113 76.924 373.785 76.924C373.457 76.924 373.161 76.984 372.897 77.104C372.641 77.224 372.421 77.388 372.237 77.596C372.053 77.796 371.909 78.036 371.805 78.316C371.709 78.588 371.661 78.88 371.661 79.192C371.661 79.504 371.709 79.8 371.805 80.08C371.909 80.352 372.053 80.592 372.237 80.8C372.421 81 372.641 81.16 372.897 81.28C373.161 81.392 373.457 81.448 373.785 81.448C374.113 81.448 374.409 81.392 374.673 81.28C374.937 81.16 375.161 81 375.345 80.8C375.529 80.592 375.669 80.352 375.765 80.08C375.869 79.8 375.921 79.504 375.921 79.192ZM379.345 77.344C379.505 77.016 379.749 76.752 380.077 76.552C380.413 76.344 380.785 76.24 381.193 76.24C381.345 76.24 381.501 76.256 381.661 76.288C381.829 76.32 381.989 76.384 382.141 76.48C382.301 76.568 382.445 76.688 382.573 76.84C382.709 76.992 382.825 77.188 382.921 77.428C383.113 77.044 383.373 76.752 383.701 76.552C384.037 76.344 384.433 76.24 384.889 76.24C385.601 76.24 386.133 76.452 386.485 76.876C386.845 77.3 387.025 77.86 387.025 78.556V82H386.209V78.892C386.209 78.3 386.097 77.824 385.873 77.464C385.657 77.104 385.285 76.924 384.757 76.924C384.461 76.924 384.209 76.984 384.001 77.104C383.801 77.224 383.637 77.384 383.509 77.584C383.389 77.776 383.301 77.996 383.245 78.244C383.189 78.492 383.161 78.748 383.161 79.012V82H382.345V78.724C382.345 78.452 382.325 78.204 382.285 77.98C382.245 77.756 382.173 77.568 382.069 77.416C381.973 77.256 381.837 77.136 381.661 77.056C381.485 76.968 381.261 76.924 380.989 76.924C380.797 76.924 380.601 76.968 380.401 77.056C380.209 77.144 380.033 77.28 379.873 77.464C379.721 77.64 379.597 77.868 379.501 78.148C379.405 78.42 379.357 78.744 379.357 79.12V82H378.541V77.62C378.541 77.468 378.537 77.272 378.529 77.032C378.521 76.792 378.509 76.576 378.493 76.384H379.273C379.289 76.536 379.301 76.704 379.309 76.888C379.317 77.072 379.321 77.224 379.321 77.344H379.345ZM392.867 76.384C392.883 76.536 392.895 76.704 392.903 76.888C392.911 77.072 392.915 77.224 392.915 77.344H392.939C393.099 77.016 393.359 76.752 393.719 76.552C394.079 76.344 394.459 76.24 394.859 76.24C395.571 76.24 396.103 76.452 396.455 76.876C396.815 77.3 396.995 77.86 396.995 78.556V82H396.179V78.892C396.179 78.596 396.155 78.328 396.107 78.088C396.059 77.848 395.975 77.644 395.855 77.476C395.743 77.3 395.587 77.164 395.387 77.068C395.195 76.972 394.951 76.924 394.655 76.924C394.439 76.924 394.227 76.968 394.019 77.056C393.819 77.144 393.639 77.28 393.479 77.464C393.319 77.64 393.191 77.868 393.095 78.148C392.999 78.42 392.951 78.744 392.951 79.12V82H392.135V77.62C392.135 77.468 392.131 77.272 392.123 77.032C392.115 76.792 392.103 76.576 392.087 76.384H392.867ZM404.687 79.192C404.687 79.616 404.611 80.008 404.459 80.368C404.315 80.728 404.111 81.04 403.847 81.304C403.583 81.568 403.267 81.776 402.899 81.928C402.531 82.072 402.127 82.144 401.687 82.144C401.255 82.144 400.855 82.072 400.487 81.928C400.119 81.776 399.803 81.568 399.539 81.304C399.275 81.04 399.067 80.728 398.915 80.368C398.771 80.008 398.699 79.616 398.699 79.192C398.699 78.768 398.771 78.376 398.915 78.016C399.067 77.656 399.275 77.344 399.539 77.08C399.803 76.816 400.119 76.612 400.487 76.468C400.855 76.316 401.255 76.24 401.687 76.24C402.127 76.24 402.531 76.316 402.899 76.468C403.267 76.612 403.583 76.816 403.847 77.08C404.111 77.344 404.315 77.656 404.459 78.016C404.611 78.376 404.687 78.768 404.687 79.192ZM403.823 79.192C403.823 78.88 403.771 78.588 403.667 78.316C403.571 78.036 403.431 77.796 403.247 77.596C403.063 77.388 402.839 77.224 402.575 77.104C402.311 76.984 402.015 76.924 401.687 76.924C401.359 76.924 401.063 76.984 400.799 77.104C400.543 77.224 400.323 77.388 400.139 77.596C399.955 77.796 399.811 78.036 399.707 78.316C399.611 78.588 399.563 78.88 399.563 79.192C399.563 79.504 399.611 79.8 399.707 80.08C399.811 80.352 399.955 80.592 400.139 80.8C400.323 81 400.543 81.16 400.799 81.28C401.063 81.392 401.359 81.448 401.687 81.448C402.015 81.448 402.311 81.392 402.575 81.28C402.839 81.16 403.063 81 403.247 80.8C403.431 80.592 403.571 80.352 403.667 80.08C403.771 79.8 403.823 79.504 403.823 79.192ZM406.551 76.384L407.907 80.944H407.931L409.443 76.384H410.235L411.771 80.944H411.795L413.139 76.384H414.003L412.227 82H411.339L409.839 77.452H409.815L408.339 82H407.451L405.675 76.384H406.551ZM416.091 81.424C416.091 81.592 416.031 81.744 415.911 81.88C415.791 82.008 415.635 82.072 415.443 82.072C415.251 82.072 415.095 82.008 414.975 81.88C414.855 81.744 414.795 81.592 414.795 81.424C414.795 81.256 414.855 81.108 414.975 80.98C415.095 80.844 415.251 80.776 415.443 80.776C415.635 80.776 415.791 80.844 415.911 80.98C416.031 81.108 416.091 81.256 416.091 81.424Z" fill="#4D5360"/>
<path d="M183.068 62H182.12L185.792 53.504H186.632L190.28 62H189.32L188.384 59.768H183.992L183.068 62ZM184.316 58.976H188.06L186.188 54.464L184.316 58.976ZM192.298 64.88H191.482V56.384H192.298V57.356H192.334C192.566 56.988 192.874 56.712 193.258 56.528C193.65 56.336 194.046 56.24 194.446 56.24C194.886 56.24 195.282 56.316 195.634 56.468C195.994 56.62 196.298 56.828 196.546 57.092C196.802 57.356 196.998 57.668 197.134 58.028C197.278 58.388 197.35 58.776 197.35 59.192C197.35 59.608 197.278 59.996 197.134 60.356C196.998 60.716 196.802 61.028 196.546 61.292C196.298 61.556 195.994 61.764 195.634 61.916C195.282 62.068 194.886 62.144 194.446 62.144C194.046 62.144 193.65 62.052 193.258 61.868C192.874 61.676 192.566 61.404 192.334 61.052H192.298V64.88ZM196.486 59.192C196.486 58.88 196.438 58.588 196.342 58.316C196.246 58.036 196.106 57.796 195.922 57.596C195.746 57.388 195.526 57.224 195.262 57.104C194.998 56.984 194.698 56.924 194.362 56.924C194.05 56.924 193.762 56.984 193.498 57.104C193.234 57.216 193.006 57.376 192.814 57.584C192.622 57.784 192.47 58.024 192.358 58.304C192.254 58.576 192.202 58.872 192.202 59.192C192.202 59.512 192.254 59.812 192.358 60.092C192.47 60.364 192.622 60.6 192.814 60.8C193.006 61 193.234 61.16 193.498 61.28C193.762 61.392 194.05 61.448 194.362 61.448C194.698 61.448 194.998 61.392 195.262 61.28C195.526 61.16 195.746 61 195.922 60.8C196.106 60.592 196.246 60.352 196.342 60.08C196.438 59.8 196.486 59.504 196.486 59.192ZM199.94 62H199.124V52.928H199.94V62ZM202.951 62H202.135V56.384H202.951V62ZM203.119 54.224C203.119 54.392 203.059 54.532 202.939 54.644C202.819 54.748 202.687 54.8 202.543 54.8C202.399 54.8 202.267 54.748 202.147 54.644C202.027 54.532 201.967 54.392 201.967 54.224C201.967 54.056 202.027 53.92 202.147 53.816C202.267 53.704 202.399 53.648 202.543 53.648C202.687 53.648 202.819 53.704 202.939 53.816C203.059 53.92 203.119 54.056 203.119 54.224ZM209.167 57.668C209.031 57.452 208.831 57.276 208.567 57.14C208.311 56.996 208.031 56.924 207.727 56.924C207.399 56.924 207.103 56.984 206.839 57.104C206.575 57.216 206.347 57.376 206.155 57.584C205.971 57.784 205.827 58.024 205.723 58.304C205.627 58.576 205.579 58.872 205.579 59.192C205.579 59.512 205.627 59.808 205.723 60.08C205.827 60.352 205.971 60.592 206.155 60.8C206.339 61 206.563 61.16 206.827 61.28C207.091 61.392 207.387 61.448 207.715 61.448C208.075 61.448 208.379 61.38 208.627 61.244C208.875 61.108 209.079 60.932 209.239 60.716L209.851 61.172C209.611 61.468 209.315 61.704 208.963 61.88C208.619 62.056 208.203 62.144 207.715 62.144C207.259 62.144 206.847 62.072 206.479 61.928C206.111 61.776 205.795 61.568 205.531 61.304C205.275 61.04 205.075 60.728 204.931 60.368C204.787 60.008 204.715 59.616 204.715 59.192C204.715 58.768 204.787 58.376 204.931 58.016C205.075 57.656 205.275 57.344 205.531 57.08C205.795 56.816 206.111 56.612 206.479 56.468C206.847 56.316 207.259 56.24 207.715 56.24C208.091 56.24 208.471 56.324 208.855 56.492C209.247 56.652 209.563 56.892 209.803 57.212L209.167 57.668ZM214.663 58.376C214.663 57.888 214.535 57.524 214.279 57.284C214.023 57.044 213.651 56.924 213.163 56.924C212.827 56.924 212.515 56.984 212.227 57.104C211.939 57.224 211.695 57.384 211.495 57.584L211.039 57.044C211.271 56.812 211.575 56.62 211.951 56.468C212.335 56.316 212.767 56.24 213.247 56.24C213.551 56.24 213.835 56.284 214.099 56.372C214.363 56.452 214.595 56.576 214.795 56.744C214.995 56.912 215.151 57.124 215.263 57.38C215.375 57.636 215.431 57.936 215.431 58.28V60.74C215.431 60.956 215.439 61.18 215.455 61.412C215.471 61.644 215.495 61.84 215.527 62H214.795C214.771 61.864 214.751 61.716 214.735 61.556C214.719 61.396 214.711 61.24 214.711 61.088H214.687C214.431 61.464 214.139 61.736 213.811 61.904C213.491 62.064 213.103 62.144 212.647 62.144C212.431 62.144 212.207 62.112 211.975 62.048C211.751 61.992 211.543 61.896 211.351 61.76C211.167 61.624 211.011 61.448 210.883 61.232C210.763 61.016 210.703 60.752 210.703 60.44C210.703 60.008 210.811 59.668 211.027 59.42C211.251 59.164 211.547 58.976 211.915 58.856C212.283 58.728 212.703 58.648 213.175 58.616C213.655 58.576 214.151 58.556 214.663 58.556V58.376ZM214.423 59.192C214.087 59.192 213.747 59.208 213.403 59.24C213.067 59.264 212.759 59.32 212.479 59.408C212.207 59.488 211.983 59.608 211.807 59.768C211.631 59.928 211.543 60.14 211.543 60.404C211.543 60.604 211.579 60.772 211.651 60.908C211.731 61.044 211.835 61.156 211.963 61.244C212.091 61.324 212.231 61.384 212.383 61.424C212.543 61.456 212.703 61.472 212.863 61.472C213.151 61.472 213.407 61.424 213.631 61.328C213.855 61.224 214.043 61.088 214.195 60.92C214.347 60.744 214.463 60.544 214.543 60.32C214.623 60.096 214.663 59.86 214.663 59.612V59.192H214.423ZM218.373 61.052V62H217.557V52.928H218.373V57.356H218.397C218.637 56.988 218.949 56.712 219.333 56.528C219.717 56.336 220.113 56.24 220.521 56.24C220.961 56.24 221.357 56.316 221.709 56.468C222.069 56.62 222.373 56.828 222.621 57.092C222.877 57.356 223.073 57.668 223.209 58.028C223.353 58.388 223.425 58.776 223.425 59.192C223.425 59.608 223.353 59.996 223.209 60.356C223.073 60.716 222.877 61.028 222.621 61.292C222.373 61.556 222.069 61.764 221.709 61.916C221.357 62.068 220.961 62.144 220.521 62.144C220.113 62.144 219.717 62.052 219.333 61.868C218.949 61.684 218.637 61.412 218.397 61.052H218.373ZM222.561 59.192C222.561 58.88 222.513 58.588 222.417 58.316C222.321 58.036 222.181 57.796 221.997 57.596C221.821 57.388 221.601 57.224 221.337 57.104C221.073 56.984 220.773 56.924 220.437 56.924C220.125 56.924 219.837 56.984 219.573 57.104C219.309 57.216 219.081 57.376 218.889 57.584C218.697 57.784 218.545 58.024 218.433 58.304C218.329 58.576 218.277 58.872 218.277 59.192C218.277 59.512 218.329 59.812 218.433 60.092C218.545 60.364 218.697 60.6 218.889 60.8C219.081 61 219.309 61.16 219.573 61.28C219.837 61.392 220.125 61.448 220.437 61.448C220.773 61.448 221.073 61.392 221.337 61.28C221.601 61.16 221.821 61 221.997 60.8C222.181 60.592 222.321 60.352 222.417 60.08C222.513 59.8 222.561 59.504 222.561 59.192ZM226.014 62H225.198V52.928H226.014V62ZM232.481 58.76C232.457 58.232 232.285 57.796 231.965 57.452C231.653 57.1 231.205 56.924 230.621 56.924C230.349 56.924 230.097 56.976 229.865 57.08C229.633 57.176 229.429 57.312 229.253 57.488C229.077 57.656 228.937 57.852 228.833 58.076C228.729 58.292 228.669 58.52 228.653 58.76H232.481ZM233.309 59.024C233.309 59.08 233.309 59.14 233.309 59.204C233.309 59.268 233.305 59.336 233.297 59.408H228.641C228.649 59.688 228.705 59.952 228.809 60.2C228.913 60.448 229.057 60.664 229.241 60.848C229.425 61.032 229.641 61.18 229.889 61.292C230.137 61.396 230.405 61.448 230.693 61.448C231.117 61.448 231.481 61.352 231.785 61.16C232.097 60.96 232.333 60.732 232.493 60.476L233.105 60.956C232.769 61.38 232.397 61.684 231.989 61.868C231.589 62.052 231.157 62.144 230.693 62.144C230.277 62.144 229.889 62.072 229.529 61.928C229.177 61.776 228.873 61.568 228.617 61.304C228.361 61.04 228.157 60.728 228.005 60.368C227.861 60.008 227.789 59.616 227.789 59.192C227.789 58.768 227.861 58.376 228.005 58.016C228.149 57.656 228.349 57.344 228.605 57.08C228.861 56.816 229.161 56.612 229.505 56.468C229.849 56.316 230.221 56.24 230.621 56.24C231.061 56.24 231.449 56.316 231.785 56.468C232.121 56.612 232.401 56.812 232.625 57.068C232.849 57.316 233.017 57.608 233.129 57.944C233.249 58.28 233.309 58.64 233.309 59.024ZM240.596 57.068H239.012V60.344C239.012 60.552 239.032 60.724 239.072 60.86C239.112 60.996 239.168 61.104 239.24 61.184C239.32 61.256 239.412 61.308 239.516 61.34C239.62 61.364 239.732 61.376 239.852 61.376C239.964 61.376 240.08 61.36 240.2 61.328C240.328 61.296 240.448 61.252 240.56 61.196L240.596 61.904C240.452 61.96 240.3 62 240.14 62.024C239.988 62.056 239.82 62.072 239.636 62.072C239.484 62.072 239.324 62.052 239.156 62.012C238.988 61.972 238.832 61.896 238.688 61.784C238.544 61.672 238.424 61.52 238.328 61.328C238.24 61.136 238.196 60.884 238.196 60.572V57.068H237.032V56.384H238.196V54.8H239.012V56.384H240.596V57.068ZM247.453 59.192C247.453 59.616 247.377 60.008 247.225 60.368C247.081 60.728 246.877 61.04 246.613 61.304C246.349 61.568 246.033 61.776 245.665 61.928C245.297 62.072 244.893 62.144 244.453 62.144C244.021 62.144 243.621 62.072 243.253 61.928C242.885 61.776 242.569 61.568 242.305 61.304C242.041 61.04 241.833 60.728 241.681 60.368C241.537 60.008 241.465 59.616 241.465 59.192C241.465 58.768 241.537 58.376 241.681 58.016C241.833 57.656 242.041 57.344 242.305 57.08C242.569 56.816 242.885 56.612 243.253 56.468C243.621 56.316 244.021 56.24 244.453 56.24C244.893 56.24 245.297 56.316 245.665 56.468C246.033 56.612 246.349 56.816 246.613 57.08C246.877 57.344 247.081 57.656 247.225 58.016C247.377 58.376 247.453 58.768 247.453 59.192ZM246.589 59.192C246.589 58.88 246.537 58.588 246.433 58.316C246.337 58.036 246.197 57.796 246.013 57.596C245.829 57.388 245.605 57.224 245.341 57.104C245.077 56.984 244.781 56.924 244.453 56.924C244.125 56.924 243.829 56.984 243.565 57.104C243.309 57.224 243.089 57.388 242.905 57.596C242.721 57.796 242.577 58.036 242.473 58.316C242.377 58.588 242.329 58.88 242.329 59.192C242.329 59.504 242.377 59.8 242.473 60.08C242.577 60.352 242.721 60.592 242.905 60.8C243.089 61 243.309 61.16 243.565 61.28C243.829 61.392 244.125 61.448 244.453 61.448C244.781 61.448 245.077 61.392 245.341 61.28C245.605 61.16 245.829 61 246.013 60.8C246.197 60.592 246.337 60.352 246.433 60.08C246.537 59.8 246.589 59.504 246.589 59.192ZM255.749 58.376C255.749 57.888 255.621 57.524 255.365 57.284C255.109 57.044 254.737 56.924 254.249 56.924C253.913 56.924 253.601 56.984 253.313 57.104C253.025 57.224 252.781 57.384 252.581 57.584L252.125 57.044C252.357 56.812 252.661 56.62 253.037 56.468C253.421 56.316 253.853 56.24 254.333 56.24C254.637 56.24 254.921 56.284 255.185 56.372C255.449 56.452 255.681 56.576 255.881 56.744C256.081 56.912 256.237 57.124 256.349 57.38C256.461 57.636 256.517 57.936 256.517 58.28V60.74C256.517 60.956 256.525 61.18 256.541 61.412C256.557 61.644 256.581 61.84 256.613 62H255.881C255.857 61.864 255.837 61.716 255.821 61.556C255.805 61.396 255.797 61.24 255.797 61.088H255.773C255.517 61.464 255.225 61.736 254.897 61.904C254.577 62.064 254.189 62.144 253.733 62.144C253.517 62.144 253.293 62.112 253.061 62.048C252.837 61.992 252.629 61.896 252.437 61.76C252.253 61.624 252.097 61.448 251.969 61.232C251.849 61.016 251.789 60.752 251.789 60.44C251.789 60.008 251.897 59.668 252.113 59.42C252.337 59.164 252.633 58.976 253.001 58.856C253.369 58.728 253.789 58.648 254.261 58.616C254.741 58.576 255.237 58.556 255.749 58.556V58.376ZM255.509 59.192C255.173 59.192 254.833 59.208 254.489 59.24C254.153 59.264 253.845 59.32 253.565 59.408C253.293 59.488 253.069 59.608 252.893 59.768C252.717 59.928 252.629 60.14 252.629 60.404C252.629 60.604 252.665 60.772 252.737 60.908C252.817 61.044 252.921 61.156 253.049 61.244C253.177 61.324 253.317 61.384 253.469 61.424C253.629 61.456 253.789 61.472 253.949 61.472C254.237 61.472 254.493 61.424 254.717 61.328C254.941 61.224 255.129 61.088 255.281 60.92C255.433 60.744 255.549 60.544 255.629 60.32C255.709 60.096 255.749 59.86 255.749 59.612V59.192H255.509ZM259.459 62H258.643V52.928H259.459V62ZM262.483 62H261.667V52.928H262.483V62ZM268.494 62H267.678V56.384H268.494V62ZM268.662 54.224C268.662 54.392 268.602 54.532 268.482 54.644C268.362 54.748 268.23 54.8 268.086 54.8C267.942 54.8 267.81 54.748 267.69 54.644C267.57 54.532 267.51 54.392 267.51 54.224C267.51 54.056 267.57 53.92 267.69 53.816C267.81 53.704 267.942 53.648 268.086 53.648C268.23 53.648 268.362 53.704 268.482 53.816C268.602 53.92 268.662 54.056 268.662 54.224ZM273.198 57.068H271.614V60.344C271.614 60.552 271.634 60.724 271.674 60.86C271.714 60.996 271.77 61.104 271.842 61.184C271.922 61.256 272.014 61.308 272.118 61.34C272.222 61.364 272.334 61.376 272.454 61.376C272.566 61.376 272.682 61.36 272.802 61.328C272.93 61.296 273.05 61.252 273.162 61.196L273.198 61.904C273.054 61.96 272.902 62 272.742 62.024C272.59 62.056 272.422 62.072 272.238 62.072C272.086 62.072 271.926 62.052 271.758 62.012C271.59 61.972 271.434 61.896 271.29 61.784C271.146 61.672 271.026 61.52 270.93 61.328C270.842 61.136 270.798 60.884 270.798 60.572V57.068H269.634V56.384H270.798V54.8H271.614V56.384H273.198V57.068ZM278.759 58.76C278.735 58.232 278.563 57.796 278.243 57.452C277.931 57.1 277.483 56.924 276.899 56.924C276.627 56.924 276.375 56.976 276.143 57.08C275.911 57.176 275.707 57.312 275.531 57.488C275.355 57.656 275.215 57.852 275.111 58.076C275.007 58.292 274.947 58.52 274.931 58.76H278.759ZM279.587 59.024C279.587 59.08 279.587 59.14 279.587 59.204C279.587 59.268 279.583 59.336 279.575 59.408H274.919C274.927 59.688 274.983 59.952 275.087 60.2C275.191 60.448 275.335 60.664 275.519 60.848C275.703 61.032 275.919 61.18 276.167 61.292C276.415 61.396 276.683 61.448 276.971 61.448C277.395 61.448 277.759 61.352 278.063 61.16C278.375 60.96 278.611 60.732 278.771 60.476L279.383 60.956C279.047 61.38 278.675 61.684 278.267 61.868C277.867 62.052 277.435 62.144 276.971 62.144C276.555 62.144 276.167 62.072 275.807 61.928C275.455 61.776 275.151 61.568 274.895 61.304C274.639 61.04 274.435 60.728 274.283 60.368C274.139 60.008 274.067 59.616 274.067 59.192C274.067 58.768 274.139 58.376 274.283 58.016C274.427 57.656 274.627 57.344 274.883 57.08C275.139 56.816 275.439 56.612 275.783 56.468C276.127 56.316 276.499 56.24 276.899 56.24C277.339 56.24 277.727 56.316 278.063 56.468C278.399 56.612 278.679 56.812 278.903 57.068C279.127 57.316 279.295 57.608 279.407 57.944C279.527 58.28 279.587 58.64 279.587 59.024ZM282.146 57.344C282.306 57.016 282.55 56.752 282.878 56.552C283.214 56.344 283.586 56.24 283.994 56.24C284.146 56.24 284.302 56.256 284.462 56.288C284.63 56.32 284.79 56.384 284.942 56.48C285.102 56.568 285.246 56.688 285.374 56.84C285.51 56.992 285.626 57.188 285.722 57.428C285.914 57.044 286.174 56.752 286.502 56.552C286.838 56.344 287.234 56.24 287.69 56.24C288.402 56.24 288.934 56.452 289.286 56.876C289.646 57.3 289.826 57.86 289.826 58.556V62H289.01V58.892C289.01 58.3 288.898 57.824 288.674 57.464C288.458 57.104 288.086 56.924 287.558 56.924C287.262 56.924 287.01 56.984 286.802 57.104C286.602 57.224 286.438 57.384 286.31 57.584C286.19 57.776 286.102 57.996 286.046 58.244C285.99 58.492 285.962 58.748 285.962 59.012V62H285.146V58.724C285.146 58.452 285.126 58.204 285.086 57.98C285.046 57.756 284.974 57.568 284.87 57.416C284.774 57.256 284.638 57.136 284.462 57.056C284.286 56.968 284.062 56.924 283.79 56.924C283.598 56.924 283.402 56.968 283.202 57.056C283.01 57.144 282.834 57.28 282.674 57.464C282.522 57.64 282.398 57.868 282.302 58.148C282.206 58.42 282.158 58.744 282.158 59.12V62H281.342V57.62C281.342 57.468 281.338 57.272 281.33 57.032C281.322 56.792 281.31 56.576 281.294 56.384H282.074C282.09 56.536 282.102 56.704 282.11 56.888C282.118 57.072 282.122 57.224 282.122 57.344H282.146ZM294.923 57.716C294.803 57.484 294.619 57.296 294.371 57.152C294.131 57 293.855 56.924 293.543 56.924C293.399 56.924 293.255 56.94 293.111 56.972C292.967 57.004 292.839 57.056 292.727 57.128C292.615 57.2 292.523 57.292 292.451 57.404C292.387 57.516 292.355 57.648 292.355 57.8C292.355 58.064 292.463 58.268 292.679 58.412C292.895 58.548 293.235 58.664 293.699 58.76C294.363 58.896 294.851 59.096 295.163 59.36C295.483 59.616 295.643 59.964 295.643 60.404C295.643 60.724 295.579 60.996 295.451 61.22C295.331 61.436 295.171 61.616 294.971 61.76C294.771 61.896 294.543 61.992 294.287 62.048C294.039 62.112 293.787 62.144 293.531 62.144C293.107 62.144 292.695 62.056 292.295 61.88C291.895 61.704 291.567 61.428 291.311 61.052L291.959 60.572C292.103 60.82 292.315 61.028 292.595 61.196C292.875 61.364 293.183 61.448 293.519 61.448C293.695 61.448 293.863 61.432 294.023 61.4C294.183 61.368 294.323 61.312 294.443 61.232C294.563 61.152 294.659 61.052 294.731 60.932C294.803 60.804 294.839 60.648 294.839 60.464C294.839 60.168 294.695 59.948 294.407 59.804C294.127 59.652 293.719 59.512 293.183 59.384C293.015 59.344 292.835 59.296 292.643 59.24C292.459 59.176 292.287 59.088 292.127 58.976C291.967 58.856 291.835 58.708 291.731 58.532C291.627 58.356 291.575 58.136 291.575 57.872C291.575 57.584 291.631 57.34 291.743 57.14C291.855 56.932 292.003 56.764 292.187 56.636C292.379 56.5 292.595 56.4 292.835 56.336C293.075 56.272 293.323 56.24 293.579 56.24C293.971 56.24 294.351 56.328 294.719 56.504C295.087 56.68 295.363 56.928 295.547 57.248L294.923 57.716Z" fill="#4D5360"/>
<path d="M59.925 55.988H61.077C61.725 55.988 62.361 55.94 62.985 55.844C63.633 55.724 64.221 55.52 64.749 55.232C65.277 54.944 65.697 54.56 66.009 54.08C66.345 53.576 66.513 52.928 66.513 52.136C66.513 51.56 66.405 51.044 66.189 50.588C65.973 50.132 65.673 49.748 65.289 49.436C64.929 49.124 64.497 48.884 63.993 48.716C63.513 48.548 63.009 48.464 62.481 48.464C61.425 48.464 60.549 48.764 59.853 49.364C59.157 49.964 58.677 50.756 58.413 51.74L54.345 50.696C54.561 49.832 54.921 49.052 55.425 48.356C55.953 47.636 56.577 47.024 57.297 46.52C58.041 45.992 58.869 45.584 59.781 45.296C60.693 45.008 61.653 44.864 62.661 44.864C63.765 44.864 64.809 45.02 65.793 45.332C66.801 45.62 67.677 46.064 68.421 46.664C69.189 47.24 69.789 47.96 70.221 48.824C70.653 49.688 70.869 50.696 70.869 51.848C70.869 53.216 70.449 54.44 69.609 55.52C68.793 56.576 67.689 57.272 66.297 57.608V57.68C67.857 57.992 69.117 58.7 70.077 59.804C71.061 60.884 71.553 62.216 71.553 63.8C71.553 65.12 71.289 66.272 70.761 67.256C70.257 68.24 69.573 69.056 68.709 69.704C67.869 70.352 66.921 70.832 65.865 71.144C64.809 71.48 63.741 71.648 62.661 71.648C61.581 71.648 60.561 71.528 59.601 71.288C58.641 71.072 57.753 70.724 56.937 70.244C56.145 69.764 55.437 69.14 54.813 68.372C54.213 67.604 53.745 66.692 53.409 65.636L57.441 64.376C57.753 65.384 58.329 66.236 59.169 66.932C60.033 67.628 61.149 67.976 62.517 67.976C63.069 67.976 63.621 67.904 64.173 67.76C64.749 67.592 65.253 67.34 65.685 67.004C66.141 66.668 66.501 66.236 66.765 65.708C67.053 65.18 67.197 64.532 67.197 63.764C67.197 62.948 66.993 62.264 66.585 61.712C66.201 61.136 65.709 60.692 65.109 60.38C64.509 60.044 63.837 59.804 63.093 59.66C62.373 59.516 61.677 59.444 61.005 59.444H59.925V55.988ZM94.2456 58.256C94.2456 60.32 94.0416 62.18 93.6336 63.836C93.2496 65.492 92.6736 66.896 91.9056 68.048C91.1616 69.2 90.2256 70.088 89.0976 70.712C87.9936 71.336 86.7216 71.648 85.2816 71.648C83.8416 71.648 82.5576 71.336 81.4296 70.712C80.3016 70.088 79.3536 69.2 78.5856 68.048C77.8176 66.896 77.2296 65.492 76.8216 63.836C76.4376 62.18 76.2456 60.32 76.2456 58.256C76.2456 56.192 76.4376 54.332 76.8216 52.676C77.2296 51.02 77.8176 49.616 78.5856 48.464C79.3536 47.312 80.3016 46.424 81.4296 45.8C82.5576 45.176 83.8416 44.864 85.2816 44.864C86.7216 44.864 87.9936 45.176 89.0976 45.8C90.2256 46.424 91.1616 47.312 91.9056 48.464C92.6736 49.616 93.2496 51.02 93.6336 52.676C94.0416 54.332 94.2456 56.192 94.2456 58.256ZM89.8176 58.256C89.8176 57.368 89.7576 56.36 89.6376 55.232C89.5416 54.104 89.3256 53.036 88.9896 52.028C88.6776 51.02 88.2216 50.18 87.6216 49.508C87.0216 48.812 86.2416 48.464 85.2816 48.464C84.2976 48.464 83.5056 48.812 82.9056 49.508C82.3056 50.18 81.8376 51.02 81.5016 52.028C81.1896 53.036 80.9736 54.104 80.8536 55.232C80.7336 56.36 80.6736 57.368 80.6736 58.256C80.6736 59.144 80.7336 60.152 80.8536 61.28C80.9736 62.408 81.1896 63.464 81.5016 64.448C81.8376 65.432 82.3056 66.272 82.9056 66.968C83.5056 67.64 84.2976 67.976 85.2816 67.976C86.2416 67.976 87.0216 67.64 87.6216 66.968C88.2216 66.272 88.6776 65.432 88.9896 64.448C89.3256 63.464 89.5416 62.408 89.6376 61.28C89.7576 60.152 89.8176 59.144 89.8176 58.256ZM114.886 64.736C114.886 63.8 115.054 62.936 115.39 62.144C115.75 61.328 116.23 60.62 116.83 60.02C117.454 59.396 118.162 58.916 118.954 58.58C119.77 58.22 120.646 58.04 121.582 58.04C122.518 58.04 123.382 58.22 124.174 58.58C124.99 58.916 125.698 59.396 126.298 60.02C126.922 60.62 127.402 61.328 127.738 62.144C128.098 62.936 128.278 63.8 128.278 64.736C128.278 65.672 128.098 66.548 127.738 67.364C127.402 68.156 126.922 68.864 126.298 69.488C125.698 70.088 124.99 70.568 124.174 70.928C123.382 71.264 122.518 71.432 121.582 71.432C120.646 71.432 119.77 71.264 118.954 70.928C118.162 70.568 117.454 70.088 116.83 69.488C116.23 68.864 115.75 68.156 115.39 67.364C115.054 66.548 114.886 65.672 114.886 64.736ZM124.822 64.736C124.822 63.824 124.51 63.056 123.886 62.432C123.262 61.808 122.494 61.496 121.582 61.496C120.67 61.496 119.902 61.808 119.278 62.432C118.654 63.056 118.342 63.824 118.342 64.736C118.342 65.648 118.654 66.416 119.278 67.04C119.902 67.664 120.67 67.976 121.582 67.976C122.494 67.976 123.262 67.664 123.886 67.04C124.51 66.416 124.822 65.648 124.822 64.736ZM97.6783 51.776C97.6783 50.84 97.8463 49.976 98.1823 49.184C98.5423 48.368 99.0223 47.66 99.6223 47.06C100.246 46.436 100.954 45.956 101.746 45.62C102.562 45.26 103.438 45.08 104.374 45.08C105.31 45.08 106.174 45.26 106.966 45.62C107.782 45.956 108.49 46.436 109.09 47.06C109.714 47.66 110.194 48.368 110.53 49.184C110.89 49.976 111.07 50.84 111.07 51.776C111.07 52.712 110.89 53.588 110.53 54.404C110.194 55.196 109.714 55.904 109.09 56.528C108.49 57.128 107.782 57.608 106.966 57.968C106.174 58.304 105.31 58.472 104.374 58.472C103.438 58.472 102.562 58.304 101.746 57.968C100.954 57.608 100.246 57.128 99.6223 56.528C99.0223 55.904 98.5423 55.196 98.1823 54.404C97.8463 53.588 97.6783 52.712 97.6783 51.776ZM107.614 51.776C107.614 50.864 107.302 50.096 106.678 49.472C106.054 48.848 105.286 48.536 104.374 48.536C103.462 48.536 102.694 48.848 102.07 49.472C101.446 50.096 101.134 50.864 101.134 51.776C101.134 52.688 101.446 53.456 102.07 54.08C102.694 54.704 103.462 55.016 104.374 55.016C105.286 55.016 106.054 54.704 106.678 54.08C107.302 53.456 107.614 52.688 107.614 51.776ZM118.954 44.36L121.942 45.728L106.966 72.152L103.978 70.784L118.954 44.36Z" fill="#1E1F26"/>
<path d="M71.9288 96.88C71.9288 95.7467 72.1155 94.7267 72.4888 93.82C72.8755 92.9 73.4022 92.12 74.0688 91.48C74.7488 90.84 75.5488 90.3467 76.4688 90C77.4022 89.6533 78.4155 89.48 79.5088 89.48C80.6155 89.48 81.6355 89.6533 82.5688 90C83.5022 90.3467 84.3088 90.84 84.9888 91.48C85.6688 92.12 86.1955 92.9 86.5688 93.82C86.9555 94.7267 87.1488 95.7467 87.1488 96.88C87.1488 97.9867 86.9555 99 86.5688 99.92C86.1955 100.827 85.6688 101.613 84.9888 102.28C84.3088 102.933 83.5022 103.447 82.5688 103.82C81.6355 104.18 80.6155 104.36 79.5088 104.36C78.4155 104.36 77.4022 104.18 76.4688 103.82C75.5488 103.447 74.7488 102.933 74.0688 102.28C73.4022 101.613 72.8755 100.827 72.4888 99.92C72.1155 99 71.9288 97.9867 71.9288 96.88ZM74.6688 96.88C74.6688 97.64 74.7822 98.34 75.0088 98.98C75.2488 99.6067 75.5822 100.153 76.0088 100.62C76.4488 101.087 76.9622 101.453 77.5488 101.72C78.1488 101.973 78.8088 102.1 79.5288 102.1C80.2488 102.1 80.9088 101.973 81.5088 101.72C82.1088 101.453 82.6222 101.087 83.0488 100.62C83.4888 100.153 83.8222 99.6067 84.0488 98.98C84.2888 98.34 84.4088 97.64 84.4088 96.88C84.4088 96.1467 84.2888 95.4667 84.0488 94.84C83.8222 94.2133 83.4955 93.6667 83.0688 93.2C82.6422 92.7333 82.1288 92.3667 81.5288 92.1C80.9288 91.8333 80.2622 91.7 79.5288 91.7C78.7955 91.7 78.1288 91.8333 77.5288 92.1C76.9422 92.3667 76.4355 92.7333 76.0088 93.2C75.5822 93.6667 75.2488 94.2133 75.0088 94.84C74.7822 95.4667 74.6688 96.1467 74.6688 96.88ZM89.5815 89.84H98.7215V92.04H92.1015V95.92H98.3415V98.04H92.1015V104H89.5815V89.84ZM101.046 89.84H110.186V92.04H103.566V95.92H109.806V98.04H103.566V104H101.046V89.84Z" fill="#1E1F26"/>
<path d="M186.48 39H190.58L192.58 27.92L192.62 26.66H192.94L192.98 27.92L194.98 39H199.08L201.98 25H199.34L197.14 36.1L197.08 37.54H196.74L196.68 36.1L194.7 25H190.86L188.88 36.1L188.82 37.54H188.48L188.42 36.1L186.22 25H183.58L186.48 39ZM207.508 39.28C209.788 39.28 211.548 37.94 211.888 36.02H209.528C209.228 36.88 208.468 37.34 207.448 37.34C206.508 37.34 205.868 37 205.448 36.4C205.148 35.98 204.988 35.44 204.908 34.78H211.888V33.98C211.888 30.84 210.228 29 207.308 29C205.728 29 204.368 29.64 203.528 30.86C202.948 31.7 202.548 32.82 202.548 34.18C202.548 35.5 202.848 36.6 203.448 37.44C204.268 38.64 205.608 39.28 207.508 39.28ZM204.968 33.08C205.048 32.6 205.208 32.2 205.428 31.86C205.868 31.24 206.548 30.9 207.328 30.9C208.668 30.9 209.448 31.66 209.508 33.08H204.968ZM214.129 39H216.489V25H214.129V39ZM223.46 39.28C226.06 39.28 227.88 37.78 227.94 35.38H225.6C225.44 36.56 224.7 37.2 223.52 37.2C222.7 37.2 222.06 36.88 221.66 36.28C221.3 35.76 221.1 35.06 221.1 34.18C221.1 33.26 221.3 32.56 221.68 32.02C222.1 31.42 222.76 31.08 223.62 31.08C224.84 31.08 225.62 31.74 225.8 32.9H228.14C228.06 30.52 226.2 29 223.6 29C221.86 29 220.48 29.64 219.62 30.86C219.04 31.7 218.7 32.82 218.7 34.18C218.7 35.5 219 36.6 219.6 37.44C220.42 38.64 221.76 39.28 223.46 39.28ZM234.6 39.28C236.42 39.28 237.9 38.54 238.78 37.22C239.36 36.4 239.68 35.34 239.68 34.14C239.68 32.94 239.36 31.88 238.78 31.06C237.9 29.74 236.42 29 234.6 29C232.8 29 231.32 29.74 230.44 31.06C229.86 31.88 229.54 32.94 229.54 34.14C229.54 35.34 229.86 36.4 230.44 37.22C231.32 38.54 232.8 39.28 234.6 39.28ZM231.94 34.14C231.94 33.34 232.14 32.68 232.5 32.16C232.96 31.48 233.7 31.08 234.6 31.08C235.52 31.08 236.26 31.48 236.72 32.16C237.06 32.68 237.26 33.34 237.26 34.14C237.26 34.94 237.06 35.6 236.72 36.12C236.26 36.8 235.52 37.2 234.6 37.2C233.7 37.2 232.96 36.8 232.5 36.12C232.14 35.6 231.94 34.94 231.94 34.14ZM241.902 39H244.262V33.8C244.262 32.16 244.942 31.16 246.242 31.16C247.182 31.16 247.862 31.88 247.862 33.26V39H250.222V33.8C250.222 32.18 250.942 31.16 252.222 31.16C253.262 31.16 253.802 31.88 253.802 33.26V39H256.162V32.78C256.162 30.3 255.082 29 253.062 29C251.582 29 250.402 29.78 249.902 31.88H249.562C249.562 29.98 248.402 29 247.002 29C245.442 29 244.502 30.02 244.002 31.88H243.662L244.262 29.28H241.902V39ZM263.133 39.28C265.413 39.28 267.173 37.94 267.513 36.02H265.153C264.853 36.88 264.093 37.34 263.073 37.34C262.133 37.34 261.493 37 261.073 36.4C260.773 35.98 260.613 35.44 260.533 34.78H267.513V33.98C267.513 30.84 265.853 29 262.933 29C261.353 29 259.993 29.64 259.153 30.86C258.573 31.7 258.173 32.82 258.173 34.18C258.173 35.5 258.473 36.6 259.073 37.44C259.893 38.64 261.233 39.28 263.133 39.28ZM260.593 33.08C260.673 32.6 260.833 32.2 261.053 31.86C261.493 31.24 262.173 30.9 262.953 30.9C264.293 30.9 265.073 31.66 265.133 33.08H260.593ZM280.935 39.32C284.655 39.32 287.035 37.12 287.275 33.96H284.735C284.495 35.8 283.095 37 281.035 37C279.115 37 277.615 35.86 276.955 34.04C276.735 33.42 276.615 32.74 276.615 32C276.615 31.26 276.735 30.58 276.955 29.96C277.615 28.14 279.115 27 281.095 27C283.195 27 284.715 28.22 284.935 30.04H287.495C287.295 26.78 284.675 24.68 281.075 24.68C277.935 24.68 275.495 26.4 274.495 29.12C274.175 29.98 274.015 30.96 274.015 32C274.015 33.04 274.175 34.02 274.495 34.88C275.495 37.6 277.935 39.32 280.935 39.32ZM294.132 39.28C295.952 39.28 297.432 38.54 298.312 37.22C298.892 36.4 299.212 35.34 299.212 34.14C299.212 32.94 298.892 31.88 298.312 31.06C297.432 29.74 295.952 29 294.132 29C292.332 29 290.852 29.74 289.972 31.06C289.392 31.88 289.072 32.94 289.072 34.14C289.072 35.34 289.392 36.4 289.972 37.22C290.852 38.54 292.332 39.28 294.132 39.28ZM291.472 34.14C291.472 33.34 291.672 32.68 292.032 32.16C292.492 31.48 293.232 31.08 294.132 31.08C295.052 31.08 295.792 31.48 296.252 32.16C296.592 32.68 296.792 33.34 296.792 34.14C296.792 34.94 296.592 35.6 296.252 36.12C295.792 36.8 295.052 37.2 294.132 37.2C293.232 37.2 292.492 36.8 292.032 36.12C291.672 35.6 291.472 34.94 291.472 34.14ZM304.594 39.28C306.154 39.28 307.214 38.3 307.774 36.4H308.114L307.514 39H309.874V29.28H307.514V34.34C307.514 36.06 306.694 37.12 305.354 37.12C304.194 37.12 303.594 36.38 303.594 34.94V29.28H301.234V35.32C301.234 37.92 302.354 39.28 304.594 39.28ZM312.879 42.6H315.239V39L314.639 36.4H314.979C315.539 38.28 316.719 39.28 318.459 39.28C319.899 39.28 321.099 38.66 321.859 37.54C322.459 36.68 322.759 35.52 322.759 34.14C322.759 32.76 322.459 31.6 321.859 30.74C321.099 29.62 319.899 29 318.459 29C316.719 29 315.539 30 314.979 31.88H314.639L315.239 29.28H312.879V42.6ZM315.199 34.14C315.199 33.28 315.399 32.56 315.759 32.06C316.219 31.42 316.919 31.08 317.779 31.08C318.639 31.08 319.339 31.42 319.799 32.06C320.159 32.56 320.359 33.28 320.359 34.14C320.359 35 320.159 35.72 319.799 36.22C319.339 36.86 318.639 37.2 317.779 37.2C316.919 37.2 316.219 36.86 315.759 36.22C315.399 35.72 315.199 35 315.199 34.14ZM329.385 39.28C331.205 39.28 332.685 38.54 333.565 37.22C334.145 36.4 334.465 35.34 334.465 34.14C334.465 32.94 334.145 31.88 333.565 31.06C332.685 29.74 331.205 29 329.385 29C327.585 29 326.105 29.74 325.225 31.06C324.645 31.88 324.325 32.94 324.325 34.14C324.325 35.34 324.645 36.4 325.225 37.22C326.105 38.54 327.585 39.28 329.385 39.28ZM326.725 34.14C326.725 33.34 326.925 32.68 327.285 32.16C327.745 31.48 328.485 31.08 329.385 31.08C330.305 31.08 331.045 31.48 331.505 32.16C331.845 32.68 332.045 33.34 332.045 34.14C332.045 34.94 331.845 35.6 331.505 36.12C331.045 36.8 330.305 37.2 329.385 37.2C328.485 37.2 327.745 36.8 327.285 36.12C326.925 35.6 326.725 34.94 326.725 34.14ZM336.688 39H339.048V33.94C339.048 32.22 339.928 31.16 341.308 31.16C342.548 31.16 343.168 31.9 343.168 33.34V39H345.528V32.96C345.528 30.36 344.348 29 342.068 29C340.467 29 339.368 29.98 338.788 31.88H338.448L339.048 29.28H336.688V39Z" fill="#1E1F26"/>
</svg>
